<?xml version="1.0" encoding="UTF-8"?>
<svg id="Logo" xmlns="http://www.w3.org/2000/svg" viewBox="0 0 1027.54 272.13">
  <defs>
    <style>
      .cls-1 {
        fill: #007d8f;
      }

      .cls-2 {
        fill: #fff;
      }
    </style>
  </defs>
  <path class="cls-1" d="m181.42,90.71c50.1,0,90.71-40.61,90.71-90.71H0v226.79c0,25.04,20.3,45.33,45.33,45.33h226.79V90.71c-50.1,0-90.71,40.61-90.71,90.71h-68.13c-12.47,0-22.58-10.11-22.58-22.58v-68.12h90.71Z"/>
  <g>
    <path class="cls-2" d="m452.6,134.25v18.9h53.44c-.15,10.96-2.72,20.68-7.74,29.13-5.18,8.72-12.3,15.54-21.36,20.45-9.06,4.92-19.46,7.38-31.2,7.38-13.98,0-26.45-3.19-37.41-9.58-10.97-6.38-19.51-15.15-25.64-26.28-6.13-11.14-9.19-23.78-9.19-37.93s3.11-27.53,9.32-38.58c6.21-11.05,14.76-19.72,25.64-26.02,10.87-6.3,23.3-9.45,37.29-9.45,7.08,0,14.11,1.21,21.1,3.62,6.99,2.42,13.42,5.83,19.29,10.23,5.87,4.4,10.53,9.37,13.98,14.89l17.35-11.91c-4.66-7.08-10.79-13.38-18.39-18.9-7.6-5.52-15.97-9.88-25.12-13.08-9.15-3.19-18.56-4.79-28.22-4.79-18.47,0-34.79,4.01-48.94,12.04-14.15,8.03-25.25,19.08-33.27,33.14-8.03,14.07-12.04,30.34-12.04,48.81s4.01,34.22,12.04,48.29c8.03,14.07,19.12,25.12,33.27,33.14,14.15,8.03,30.47,12.04,48.94,12.04,15.88,0,29.95-3.32,42.21-9.97,12.26-6.64,21.83-15.88,28.74-27.7,6.79-11.62,10.22-25.23,10.34-40.78h.02v-17.09h-74.45Z"/>
    <polygon class="cls-2" points="679.61 65.31 679.61 45.35 588.1 45.35 586.03 45.35 566.08 45.35 566.08 226.77 588.1 226.77 588.1 147.21 656.86 147.34 656.86 127.38 588.1 127.25 588.1 65.31 679.61 65.31"/>
    <path class="cls-2" d="m782.27,229.8c-17.52,0-33.04-3.97-46.56-11.91-13.53-7.94-24.11-18.99-31.73-33.14-7.63-14.15-11.45-30.38-11.45-48.68s3.77-34.74,11.32-48.81c7.54-14.07,17.99-25.07,31.34-33.01,13.35-7.94,28.79-11.91,46.3-11.91s32.99,4.01,46.43,12.04c13.44,8.03,23.89,19.08,31.35,33.14,7.45,14.07,11.19,30.25,11.19,48.55s-3.73,34.53-11.19,48.68c-7.46,14.16-17.82,25.21-31.09,33.14-13.27,7.94-28.57,11.91-45.91,11.91Zm0-19.94c12.83,0,24.23-3.15,34.21-9.45,9.97-6.3,17.78-14.97,23.41-26.02,5.63-11.04,8.46-23.82,8.46-38.32s-2.86-27.06-8.59-38.19c-5.72-11.14-13.62-19.85-23.67-26.15-10.06-6.3-21.59-9.45-34.6-9.45s-24.54,3.15-34.6,9.45c-10.06,6.3-17.95,15.02-23.67,26.15-5.72,11.13-8.58,23.87-8.58,38.19s2.86,27.28,8.58,38.32c5.72,11.05,13.7,19.72,23.93,26.02,10.23,6.3,21.94,9.45,35.12,9.45Z"/>
    <path class="cls-2" d="m963.85,229.8c-10.01,0-18.9-1.08-26.67-3.24-7.77-2.16-14.5-5.18-20.2-9.06-5.7-3.89-10.36-8.2-13.98-12.95-3.62-4.75-6.3-9.79-8.03-15.15l20.97-7.25c2.59,7.6,7.81,14.2,15.66,19.81,7.85,5.61,17.48,8.42,28.87,8.42,13.98,0,24.94-2.76,32.88-8.29,7.94-5.52,11.91-12.86,11.91-22.01,0-8.46-3.54-15.32-10.62-20.59-7.08-5.26-16.4-9.36-27.96-12.3l-19.94-5.18c-8.12-2.07-15.58-5.13-22.4-9.19-6.82-4.06-12.26-9.23-16.31-15.54-4.06-6.3-6.08-13.85-6.08-22.66,0-16.4,5.31-29.21,15.92-38.45,10.62-9.23,25.93-13.85,45.96-13.85,11.91,0,22.18,1.94,30.81,5.83,8.63,3.89,15.67,8.8,21.1,14.76,5.44,5.95,9.28,12.39,11.52,19.29l-20.71,7.25c-3.28-8.63-8.8-15.41-16.57-20.32-7.77-4.92-17.18-7.38-28.22-7.38s-20.76,2.81-27.57,8.41c-6.82,5.61-10.23,13.25-10.23,22.91,0,8.29,2.67,14.63,8.03,19.03,5.35,4.4,12.34,7.64,20.97,9.71l19.94,4.92c17.61,4.14,31.11,11,40.52,20.59,9.41,9.58,14.11,19.9,14.11,30.94,0,9.5-2.42,18.17-7.25,26.02-4.83,7.86-11.95,14.07-21.36,18.64-9.41,4.57-21.1,6.86-35.09,6.86Z"/>
  </g>
</svg>